<svg width="400" height="150" viewBox="0 0 400 150" fill="none" xmlns="http://www.w3.org/2000/svg">
<path d="M142.573 94C149.472 94 155.568 90.4545 158.67 84.9752L153.322 81.9132C151.397 85.6198 147.279 87.9835 142.573 87.9835C134.498 87.9835 129.15 82.2355 129.15 74.5C129.15 66.7645 134.498 61.0165 142.573 61.0165C147.279 61.0165 151.343 63.3802 153.322 67.0868L158.67 63.9711C155.515 58.4917 149.418 55 142.573 55C131.182 55 123 63.595 123 74.5C123 85.405 131.182 94 142.573 94Z" fill="#111317"/>
<path d="M175.974 94C183.835 94 190.092 87.8223 190.092 79.8719C190.092 71.8678 183.835 65.7438 175.974 65.7438C168.166 65.7438 161.855 71.8678 161.855 79.8719C161.855 87.8223 168.166 94 175.974 94ZM175.974 88.3595C171.267 88.3595 167.631 84.7603 167.631 79.8719C167.631 74.9835 171.267 71.3843 175.974 71.3843C180.68 71.3843 184.316 74.9835 184.316 79.8719C184.316 84.7603 180.68 88.3595 175.974 88.3595Z" fill="#111317"/>
<path d="M198.202 62.4132C200.234 62.4132 201.892 60.6942 201.892 58.7066C201.892 56.6653 200.234 55 198.202 55C196.17 55 194.512 56.6653 194.512 58.7066C194.512 60.6942 196.17 62.4132 198.202 62.4132ZM195.314 93.3017H201.09V66.4422H195.314V93.3017Z" fill="#111317"/>
<path d="M221.861 65.7438C218.224 65.7438 215.336 67.0868 213.572 69.8802V66.4422H207.796V93.3017H213.572V78.905C213.572 73.4256 216.566 71.1694 220.363 71.1694C224 71.1694 226.353 73.3182 226.353 77.4008V93.3017H232.129V76.8099C232.129 69.8265 227.85 65.7438 221.861 65.7438Z" fill="#111317"/>
<path d="M253.482 65.7438C249.311 65.7438 246.155 67.4628 244.123 70.2562V55.6983H238.348V93.3017H244.123V89.4339C246.155 92.281 249.311 94 253.482 94C260.755 94 266.798 87.8223 266.798 79.8719C266.798 71.8678 260.755 65.7438 253.482 65.7438ZM252.573 88.4669C247.76 88.4669 244.123 84.8678 244.123 79.8719C244.123 74.876 247.76 71.2769 252.573 71.2769C257.386 71.2769 261.022 74.876 261.022 79.8719C261.022 84.8678 257.386 88.4669 252.573 88.4669Z" fill="#111317"/>
<path d="M276.578 82.343H297.863C297.97 81.5909 298.077 80.7314 298.077 79.9256C298.077 72.1901 292.622 65.7438 284.654 65.7438C276.257 65.7438 270.535 71.9215 270.535 79.8719C270.535 87.9298 276.257 94 285.081 94C290.322 94 294.333 91.7975 296.793 88.1446L292.034 85.3512C290.75 87.2314 288.344 88.6818 285.135 88.6818C280.857 88.6818 277.487 86.5331 276.578 82.343ZM276.525 77.6157C277.327 73.5868 280.268 71.0083 284.6 71.0083C288.076 71.0083 291.445 72.9959 292.247 77.6157H276.525Z" fill="#111317"/>
<path d="M317.243 72.0289V66.4422H310.612V58.9215L304.837 60.6405V66.4422H299.917V72.0289H304.837V84.9215C304.837 91.905 308.366 94.376 317.243 93.3017V88.0909C312.858 88.3058 310.612 88.3595 310.612 84.9215V72.0289H317.243Z" fill="#111317"/>
<path d="M345.043 61.6074V55.6983H323.117V93.3017H329.267V78.0455H344.509V72.1364H329.267V61.6074H345.043Z" fill="#111317"/>
<path d="M353.31 62.4132C355.342 62.4132 357 60.6942 357 58.7066C357 56.6653 355.342 55 353.31 55C351.278 55 349.62 56.6653 349.62 58.7066C349.62 60.6942 351.278 62.4132 353.31 62.4132ZM350.422 93.3017H356.198V66.4422H350.422V93.3017Z" fill="#111317"/>
<path fill-rule="evenodd" clip-rule="evenodd" d="M91.6114 92.0805C86.6911 98.1352 79.2094 102 70.8308 102C56.0125 102 44 89.9117 44 75C44 60.0883 56.0125 48 70.8308 48C79.2094 48 86.6911 51.8648 91.6114 57.9195C88.3779 58.688 85.4921 60.3623 83.2331 62.6615C80.0717 59.4437 75.6826 57.45 70.8308 57.45C61.199 57.45 53.3908 65.3074 53.3908 75C53.3908 84.6926 61.199 92.55 70.8308 92.55C75.6826 92.55 80.0717 90.5562 83.2331 87.3385C85.4921 89.6377 88.3779 91.312 91.6114 92.0805Z" fill="#7451FF"/>
<ellipse cx="95.6353" cy="75.3374" rx="7.36467" ry="7.41112" fill="#7451FF"/>
<ellipse cx="70.3647" cy="75.4111" rx="7.36467" ry="7.41112" fill="#7451FF"/>
</svg>
